<?xml version="1.0" encoding="UTF-8" standalone="no"?>
<!DOCTYPE svg PUBLIC "-//W3C//DTD SVG 1.1//EN" "http://www.w3.org/Graphics/SVG/1.1/DTD/svg11.dtd">
<svg xmlns="http://www.w3.org/2000/svg" x="0px" y="0px" width="100" height="100" viewBox="0,0,300,150">
	<g fill="#ffffff" fill-rule="nonzero" stroke="none" stroke-width="1" stroke-linecap="butt" stroke-linejoin="miter" stroke-miterlimit="10" stroke-dasharray="" stroke-dashoffset="0" font-family="none" font-weight="none" font-size="none" text-anchor="none" style="mix-blend-mode: normal">
		<g transform="scale(5.33333,5.33333)">
			<path d="M24,5c-3.47457,0 -6.75259,0.84415 -9.60742,2.33203c-0.48442,0.24259 -0.8004,0.72752 -0.82665,1.26865c-0.02626,0.54113 0.24129,1.05437 0.69995,1.34272c0.45866,0.28835 1.03715,0.307 1.51342,0.04879c2.43317,-1.26812 5.23128,-1.99219 8.2207,-1.99219c9.45014,0 17,7.19201 17,16c0,7.70709 -5.78101,14.16748 -13.55664,15.67188c-0.53232,0.09556 -0.97199,0.47025 -1.15076,0.98068c-0.17877,0.51043 -0.06895,1.07757 0.28743,1.48438c0.35637,0.40681 0.90413,0.5903 1.43365,0.48025c9.08437,-1.75761 15.98633,-9.41028 15.98633,-18.61719c0,-10.52201 -9.01614,-19 -20,-19zM9.74219,11.35156c-0.44142,-0.00084 -0.86081,0.19278 -1.14648,0.5293c-2.86214,3.27953 -4.5957,7.51626 -4.5957,12.11914c0,5.39129 2.436,10.20861 6.21484,13.65234l-0.07227,3.51758c-0.05567,2.80794 3.12774,4.68345 5.55664,3.27344l4.00195,-2.32227c0.71678,-0.41583 0.96075,-1.334 0.54492,-2.05078c-0.41583,-0.71678 -1.334,-0.96075 -2.05078,-0.54492l-4.00195,2.32422c-0.53687,0.31206 -1.0631,0.0022 -1.05078,-0.61914l0.08398,-4.13281c0.00874,-0.45327 -0.18797,-0.88619 -0.53516,-1.17773c-3.50187,-2.94503 -5.69141,-7.17999 -5.69141,-11.91992c0,-3.85312 1.4376,-7.37602 3.85547,-10.14648c0.39494,-0.4402 0.4944,-1.07135 0.25397,-1.61167c-0.24042,-0.54032 -0.77586,-0.88897 -1.36726,-0.89028zM34.07422,18.10742c-0.25437,-0.04625 -0.52636,0.00311 -0.75586,0.16211l-6.61523,4.58203l-3.45312,-3.03711l-0.24219,-0.21289l-0.13281,-0.10937c-1.034,-0.78 -2.50516,-0.57306 -3.28516,0.46094l-6.27148,8.31641l-0.01953,0.02344c-0.255,0.339 -0.27744,0.81659 -0.02344,1.18359c0.318,0.458 0.94725,0.57191 1.40625,0.25391l6.61523,-4.58203l3.45313,3.03906l0.24219,0.21289l0.13281,0.10742c1.034,0.78 2.50516,0.57502 3.28516,-0.45898l6.27148,-8.31641l0.01953,-0.02539c0.255,-0.339 0.27744,-0.81464 0.02344,-1.18164c-0.159,-0.229 -0.39601,-0.37172 -0.65039,-0.41797z"></path>
		</g>
	</g>
</svg>